HIERARCHY
ROOT Hips
{
	OFFSET 0.00000 0.00000 0.00000
	CHANNELS 6 Xposition Yposition Zposition Yrotation Zrotation Xrotation 
	JOINT Lumbar
	{
		OFFSET 0 0 0
		CHANNELS 3 Zrotation Xrotation Yrotation
		JOINT Neck
		{
			OFFSET 0.00 0.2701 0.00
			CHANNELS 3 Zrotation Xrotation Yrotation
			End Site
			{
				OFFSET 0.00 0.1379 0.00
			}
		}
		JOINT RightShoulder
		{
			OFFSET 0.0119 0.2289 0.1181
			CHANNELS 3 Zrotation Xrotation Yrotation
			JOINT RightElbow
			{
				OFFSET 0.00 -0.1475 0.00
				CHANNELS 2 Zrotation Yrotation
				JOINT RightWrist
				{
					OFFSET 0.00 -0.1605 0.00
					CHANNELS 2 Zrotation Xrotation
					End Site
					{
						OFFSET 0.0040 -0.1068 0.0006
					}
				}
			}
		}
		JOINT LeftShoulder
		{
			OFFSET 0.0119 0.2289 -0.1181
			CHANNELS 3 Zrotation Xrotation Yrotation
			JOINT LeftElbow
			{
				OFFSET 0.00 -0.1475 0.00
				CHANNELS 2 Zrotation Yrotation
				JOINT LeftWrist
				{
					OFFSET 0.00 -0.1605 0.00
					CHANNELS 2 Zrotation Xrotation
					End Site
					{
						OFFSET 0.0040 -0.1068 -0.0006
					}
				}
			}
		}
	}
	JOINT RightHip
	{
		OFFSET 0.0316 -0.0424 0.0458
		CHANNELS 3 Zrotation Xrotation Yrotation
		JOINT RightKnee
		{
			OFFSET 0.00 -0.2438 0.00
			CHANNELS 1 Zrotation
			JOINT RightAnkle
			{
				OFFSET 0.00 -0.2449 0.00
				CHANNELS 3 Zrotation Xrotation Yrotation
				End Site
				{
					OFFSET 0.1237 -0.0542 0.0051
				}
			}
		}
	}
	JOINT LeftHip
	{
		OFFSET 0.0316 -0.0424 -0.0458
		CHANNELS 3 Zrotation Xrotation Yrotation
		JOINT LeftKnee
		{
			OFFSET 0.00 -0.2438 0.00
			CHANNELS 1 Zrotation
			JOINT LeftAnkle
			{
				OFFSET 0.00 -0.2449 0.00
				CHANNELS 3 Zrotation Xrotation Yrotation
				End Site
				{
					OFFSET 0.1237 -0.0542 -0.0051
				}
			}
		}
	}
}
MOTION
Frames: 10
Frame Time: 0.02
-1.64835 -0.33164 -0.24006 1278.07019 -46.44297 25.49234 9.44555 10.73732 -22.62593 19.39337 5.05455 -0.83079 93.97726 -14.83179 47.54456 56.49622 94.70498 -8.9815 -10.07628 52.09368 2.93654 -23.41988 56.15899 -94.11845 -13.80828 7.9812 34.5526 -9.69179 -17.08051 -110.96718 -5.90425 -3.81344 -2.5968 123.67695 22.24573 13.71768 -139.63542 -5.68101 1.36082 1.26653
-1.6482 -0.33181 -0.23963 1277.80547 -46.38108 25.52642 9.24225 10.63648 -22.22097 19.4191 5.42228 -0.83079 95.04811 -12.61976 46.25307 57.33688 97.29387 -11.81221 -9.81238 52.10884 2.70702 -23.20258 56.64078 -95.72672 -15.03826 7.97941 34.44517 -9.92515 -16.90458 -111.09312 -5.8801 -3.82967 -2.61019 123.53025 22.10121 13.87836 -139.70857 -5.66366 1.43648 1.30599
-1.64757 -0.33217 -0.23903 1277.64554 -46.39332 25.61242 8.94723 10.59698 -21.69774 19.52148 5.91045 -0.83079 96.30043 -10.57054 44.33088 57.56585 101.0646 -15.75993 -9.4098 52.42913 2.37159 -23.03468 57.10843 -98.23616 -16.86107 7.9921 34.51666 -10.1391 -16.753 -111.36926 -5.85315 -3.87023 -2.63838 123.56069 22.20474 14.21365 -139.79969 -5.62764 1.47816 1.3286
-1.64714 -0.33245 -0.2385 1277.44822 -46.37903 25.67988 8.69399 10.53625 -21.22785 19.59381 6.34157 -0.83079 97.44402 -8.49499 42.68003 58.05947 104.17985 -19.10306 -9.08101 52.62086 2.08418 -22.84656 57.57786 -100.27925 -18.37873 7.99844 34.51838 -10.36232 -16.59092 -111.58235 -5.82722 -3.89837 -2.65866 123.5232 22.21187 14.47853 -139.88176 -5.59527 1.52974 1.35598
-1.64679 -0.33269 -0.23797 1277.20627 -46.33593 25.72783 8.43784 10.44616 -20.7525 19.64703 6.78537 -0.83079 98.70948 -6.19913 41.08275 58.60975 107.79293 -22.86536 -8.71098 52.77909 1.79018 -22.64644 58.06128 -102.58247 -20.06289 8.00562 34.4717 -10.58999 -16.42602 -111.77607 -5.80176 -3.93159 -2.68349 123.43283 22.15305 14.71179 -139.96806 -5.56843 1.59333 1.38981
-1.64615 -0.33306 -0.23742 1277.08441 -46.36952 25.82884 8.16755 10.433 -20.26505 19.75741 7.22929 -0.83079 99.75599 -4.41339 39.23356 58.89663 110.65324 -26.01528 -8.39248 53.07481 1.48851 -22.4846 58.51437 -104.55165 -21.53535 8.01393 34.56823 -10.80101 -16.27366 -112.04458 -5.77502 -3.96034 -2.70261 123.49367 22.29023 15.05031 -140.04954 -5.52077 1.62178 1.40515
-1.64483 -0.33377 -0.23691 1277.24758 -46.6018 26.05396 7.873 10.60852 -19.75001 20.01189 7.65578 -0.83079 100.203 -3.93319 36.77922 58.60342 111.11374 -27.21162 -8.2482 53.69104 1.17861 -22.40954 58.88615 -105.36051 -22.27472 8.02045 35.01616 -10.97482 -16.14116 -112.48535 -5.74369 -3.96977 -2.70127 123.94058 22.89681 15.63257 -140.11406 -5.55566 1.64302 1.41492
-1.64324 -0.33461 -0.2364 1277.5317 -46.90773 26.33208 7.56914 10.86089 -19.23169 20.32009 8.07577 -0.83079 100.41364 -3.97504 34.10668 58.06548 110.78308 -27.75072 -8.16048 54.43123 0.86776 -22.3729 59.2282 -105.8035 -22.77932 8.02776 35.60197 -11.13098 -16.02209 -112.99517 -5.71153 -3.97414 -2.69393 124.53166 23.69305 16.31403 -140.17278 -5.55218 1.61897 1.40103
-1.64177 -0.33538 -0.23588 1277.77428 -47.17637 26.59197 7.27475 11.08403 -18.731 20.6005 8.49076 -0.83079 100.69861 -3.82047 31.57542 57.64263 110.83369 -28.58134 -8.04737 55.10323 0.5669 -22.32339 59.58621 -106.42062 -23.39087 8.03508 36.12482 -11.29173 -15.90248 -113.47171 -5.68095 -3.98156 -2.6901 125.04882 24.40987 16.95262 -140.23379 -5.47698 1.56309 1.37129
-1.64026 -0.3362 -0.23536 1277.96436 -47.46334 26.82916 6.95473 11.28583 -18.15883 20.89839 8.94357 -0.83079 101.12809 -3.49643 28.8404 57.18691 110.82814 -29.47782 -7.92753 55.83556 0.22251 -22.25603 59.93612 -107.03108 -24.02071 8.04065 36.65539 -11.46629 -15.75994 -113.96252 -5.64525 -3.9866 -2.68346 125.60678 25.10906 17.5904 -140.29747 -5.76311 1.72109 1.4501
